<svg width="872" height="820" viewBox="0 0 872 820" fill="none" xmlns="http://www.w3.org/2000/svg">
<g filter="url(#filter0_f_413_3122)">
<path d="M93.3453 355.833C153.672 224.777 191.851 179.383 203.4 173.068C203.4 173.068 240.595 43.2375 271.675 183.655C302.756 324.072 425.039 126.262 425.039 126.262L460.705 355.833L321.586 439.266L460.705 490.121L396.506 726.379L176.396 526.34L321.586 439.266L93.3453 355.833Z" fill="#FF4747"/>
</g>
<g filter="url(#filter1_f_413_3122)">
<path d="M429.832 380.595C256.67 332.74 503.52 93.0512 503.52 93.0512C503.52 93.0512 562.326 296.793 643.382 202.221C724.439 107.65 667.764 296.794 741.564 383.118C815.365 469.442 756.494 494.504 756.494 494.504C756.494 494.504 679.753 637.012 617.202 584.298C554.651 531.585 482.016 498.251 454.512 451.851C429.712 410.012 446.242 395.038 472.236 391.927C459.85 388.75 445.77 384.999 429.832 380.595Z" fill="#FA7902"/>
</g>
<defs>
<filter id="filter0_f_413_3122" x="0.345337" y="25.3789" width="553.36" height="794" filterUnits="userSpaceOnUse" color-interpolation-filters="sRGB">
<feFlood flood-opacity="0" result="BackgroundImageFix"/>
<feBlend mode="normal" in="SourceGraphic" in2="BackgroundImageFix" result="shape"/>
<feGaussianBlur stdDeviation="46.5" result="effect1_foregroundBlur_413_3122"/>
</filter>
<filter id="filter1_f_413_3122" x="275.223" y="0.0507812" width="596.516" height="688.945" filterUnits="userSpaceOnUse" color-interpolation-filters="sRGB">
<feFlood flood-opacity="0" result="BackgroundImageFix"/>
<feBlend mode="normal" in="SourceGraphic" in2="BackgroundImageFix" result="shape"/>
<feGaussianBlur stdDeviation="46.5" result="effect1_foregroundBlur_413_3122"/>
</filter>
</defs>
</svg>
